<svg xmlns="http://www.w3.org/2000/svg" xmlns:xlink="http://www.w3.org/1999/xlink" version="1.1" viewBox="4.59 89.07 190.72 23.91">
<g id="surface1">
<path style=" stroke:none;fill-rule:nonzero;fill:rgb(0%,0%,0%);fill-opacity:1;" d="M 5.011719 109.601562 C 5.386719 110.347656 5.921875 111.039062 6.613281 111.519531 C 7.464844 112.160156 8.425781 112.585938 9.601562 112.640625 L 14.027344 112.640625 C 16.746094 112.640625 18.988281 110.71875 18.988281 107.734375 L 11.199219 107.734375 C 10.398438 107.734375 9.921875 107.199219 9.8125 106.453125 L 9.8125 97.8125 C 9.8125 97.707031 9.761719 97.652344 9.761719 97.546875 L 9.761719 95.945312 C 9.761719 95.894531 9.8125 95.839844 9.8125 95.734375 C 9.921875 95.039062 10.558594 94.453125 11.253906 94.398438 L 14.613281 94.398438 L 14.613281 95.039062 C 17.226562 95.039062 18.878906 93.171875 18.878906 90.773438 L 18.878906 89.441406 L 8.960938 89.441406 L 8.960938 89.492188 C 6.347656 89.601562 4.585938 91.519531 4.585938 94.398438 C 4.585938 94.453125 4.585938 94.453125 4.585938 94.453125 L 4.585938 107.625 C 4.585938 108.375 4.746094 109.011719 5.011719 109.601562 Z M 5.011719 109.601562 "/>
<path style=" stroke:none;fill-rule:nonzero;fill:rgb(0%,0%,0%);fill-opacity:1;" d="M 34.558594 104.851562 C 35.148438 104.535156 35.679688 104.160156 36.160156 103.679688 C 36.960938 102.988281 37.546875 102.132812 37.972656 101.066406 C 38.398438 100.054688 38.613281 98.828125 38.613281 97.441406 L 38.613281 97.386719 C 38.613281 96.054688 38.398438 94.933594 38.027344 93.867188 C 37.652344 92.851562 37.066406 92 36.375 91.308594 C 35.625 90.558594 34.71875 90.027344 33.707031 89.707031 C 32.640625 89.332031 31.519531 89.121094 30.238281 89.121094 L 26.878906 89.121094 C 24.375 89.121094 21.601562 91.519531 21.601562 94.453125 L 21.601562 112.535156 C 24.691406 112.535156 27.199219 109.601562 27.199219 106.027344 L 27.199219 105.867188 L 29.492188 105.867188 L 32.535156 110.347656 C 34.078125 112.640625 36.851562 113.171875 39.148438 111.679688 Z M 27.199219 100.746094 L 27.199219 94.558594 L 29.8125 94.558594 C 30.828125 94.558594 31.625 94.828125 32.214844 95.359375 C 32.746094 95.894531 33.066406 96.640625 33.066406 97.652344 L 33.066406 97.707031 C 33.066406 98.667969 32.746094 99.414062 32.214844 99.945312 C 31.625 100.480469 30.828125 100.746094 29.8125 100.746094 Z M 27.199219 100.746094 "/>
<path style=" stroke:none;fill-rule:nonzero;fill:rgb(0%,0%,0%);fill-opacity:1;" d="M 54.507812 92.480469 L 51.519531 98.71875 L 48.480469 92.480469 C 47.253906 89.972656 44 88.640625 41.226562 89.972656 L 48.480469 105.011719 L 44.90625 112.425781 C 47.679688 113.761719 50.453125 112.535156 51.679688 109.972656 L 61.226562 90.027344 C 58.453125 88.746094 55.734375 89.972656 54.507812 92.480469 Z M 54.507812 92.480469 "/>
<path style=" stroke:none;fill-rule:nonzero;fill:rgb(0%,0%,0%);fill-opacity:1;" d="M 80.105469 94.027344 C 79.679688 93.011719 79.148438 92.160156 78.398438 91.464844 C 77.707031 90.773438 76.800781 90.238281 75.785156 89.921875 C 74.773438 89.546875 73.601562 89.332031 72.375 89.332031 L 69.011719 89.332031 C 66.507812 89.332031 63.785156 91.734375 63.785156 94.613281 L 63.785156 112.535156 C 66.828125 112.535156 69.332031 109.652344 69.332031 106.078125 L 69.332031 105.921875 L 72.054688 105.921875 C 73.28125 105.921875 74.453125 105.761719 75.519531 105.386719 C 76.585938 105.011719 77.492188 104.480469 78.238281 103.785156 C 78.988281 103.09375 79.574219 102.1875 80.054688 101.171875 C 80.425781 100.105469 80.691406 98.933594 80.691406 97.546875 L 80.691406 97.492188 C 80.691406 96.214844 80.480469 95.039062 80.105469 94.027344 Z M 75.148438 97.8125 C 75.148438 98.773438 74.828125 99.519531 74.292969 100.054688 C 73.707031 100.585938 72.960938 100.851562 71.945312 100.851562 L 69.332031 100.851562 L 69.332031 94.71875 L 71.945312 94.71875 C 72.960938 94.71875 73.707031 94.988281 74.292969 95.519531 C 74.828125 96 75.148438 96.800781 75.148438 97.761719 Z M 75.148438 97.8125 "/>
<path style=" stroke:none;fill-rule:nonzero;fill:rgb(0%,0%,0%);fill-opacity:1;" d="M 86.773438 89.652344 C 84.054688 89.652344 81.867188 91.679688 81.867188 94.667969 L 88.214844 94.667969 L 88.214844 112.535156 C 91.199219 112.535156 93.601562 110.347656 93.601562 107.574219 L 93.601562 94.667969 L 95.039062 94.667969 C 97.761719 94.667969 100 92.640625 100 89.652344 Z M 86.773438 89.652344 "/>
<path style=" stroke:none;fill-rule:nonzero;fill:rgb(0%,0%,0%);fill-opacity:1;" d="M 117.546875 91.574219 C 117.386719 91.253906 117.121094 90.933594 116.800781 90.667969 C 115.894531 89.761719 114.558594 89.332031 113.171875 89.171875 C 112.375 89.121094 109.921875 89.066406 109.011719 89.066406 C 108 89.066406 107.09375 89.121094 106.1875 89.171875 C 103.414062 89.441406 101.121094 91.414062 101.121094 94.132812 L 101.121094 107.894531 C 101.121094 108.851562 101.386719 109.707031 101.867188 110.453125 C 101.972656 110.773438 102.238281 111.09375 102.558594 111.359375 C 103.519531 112.265625 104.800781 112.746094 106.1875 112.851562 C 107.039062 112.90625 107.945312 112.960938 108.851562 112.960938 C 109.867188 112.960938 112.320312 112.90625 113.171875 112.851562 C 115.945312 112.585938 118.292969 110.613281 118.292969 107.894531 L 118.292969 94.132812 C 118.292969 93.226562 118.027344 92.375 117.546875 91.574219 Z M 113.171875 106.347656 C 113.066406 107.09375 112.535156 107.625 111.785156 107.625 L 107.625 107.625 C 106.828125 107.625 106.347656 107.09375 106.1875 106.347656 L 106.1875 95.574219 C 106.347656 94.828125 106.828125 94.292969 107.625 94.292969 L 111.785156 94.292969 C 112.535156 94.292969 113.066406 94.828125 113.171875 95.574219 Z M 113.171875 106.347656 "/>
<path style=" stroke:none;fill-rule:nonzero;fill:rgb(100%,85.490196%,10.980392%);fill-opacity:1;" d="M 141.921875 89.546875 L 136.214844 89.546875 L 131.359375 96.746094 L 126.453125 89.492188 C 123.308594 89.492188 120.746094 92.054688 120.746094 95.199219 L 120.746094 112.640625 C 123.894531 112.640625 126.453125 110.078125 126.453125 106.933594 L 126.453125 99.039062 L 131.359375 104.640625 L 136.214844 98.828125 L 136.214844 112.640625 C 139.359375 112.640625 141.921875 110.078125 141.921875 106.933594 Z M 141.921875 89.546875 "/>
<path style=" stroke:none;fill-rule:nonzero;fill:rgb(100%,85.490196%,10.980392%);fill-opacity:1;" d="M 156.054688 92.746094 C 155.734375 91.519531 155.09375 90.667969 154.027344 90.027344 C 153.441406 89.707031 152.800781 89.546875 152.160156 89.546875 C 151.464844 89.546875 150.828125 89.707031 150.292969 90.027344 C 149.226562 90.667969 148.535156 91.519531 148.265625 92.746094 L 143.359375 112.375 C 146.078125 113.066406 148.800781 111.574219 149.386719 109.066406 L 149.652344 107.945312 L 149.761719 107.414062 L 154.507812 107.414062 L 154.613281 107.945312 L 154.878906 109.066406 C 155.519531 111.574219 158.238281 113.066406 160.960938 112.375 Z M 150.613281 103.359375 L 152.160156 96 L 153.652344 103.359375 Z M 150.613281 103.359375 "/>
<path style=" stroke:none;fill-rule:nonzero;fill:rgb(100%,85.490196%,10.980392%);fill-opacity:1;" d="M 165.972656 89.652344 C 163.253906 89.652344 161.066406 91.679688 161.066406 94.667969 L 167.414062 94.667969 L 167.414062 112.535156 C 170.398438 112.535156 172.800781 110.347656 172.800781 107.574219 L 172.800781 94.667969 L 174.238281 94.667969 C 176.960938 94.667969 179.199219 92.640625 179.199219 89.652344 Z M 165.972656 89.652344 "/>
<path style=" stroke:none;fill-rule:nonzero;fill:rgb(100%,85.490196%,10.980392%);fill-opacity:1;" d="M 185.441406 103.414062 L 190.71875 103.414062 L 191.945312 98.398438 L 185.441406 98.398438 L 185.441406 94.933594 L 190.347656 94.933594 C 193.386719 94.933594 195.308594 92.480469 195.308594 89.492188 L 185.386719 89.492188 C 182.453125 89.492188 180.105469 91.839844 180.105469 94.773438 L 180.105469 107.359375 C 180.105469 110.238281 182.398438 112.535156 185.28125 112.535156 L 188.851562 112.535156 C 191.839844 112.535156 194.132812 110.132812 194.132812 107.09375 L 185.441406 107.09375 Z M 185.441406 103.414062 "/>
</g>
</svg>